<?xml version="1.0" encoding="UTF-8" standalone="no"?>
<svg
   version="1.1"
   width="512px"
   height="512px"
   viewBox="-27.5 -33 512 512"
   style="shape-rendering:geometricPrecision; text-rendering:geometricPrecision; image-rendering:optimizeQuality; fill-rule:evenodd; clip-rule:evenodd"
   id="svg2"
   sodipodi:docname="twview.svg"
   inkscape:version="1.4.4 (dcaf3e7, 2026-05-05)"
   xmlns:inkscape="http://www.inkscape.org/namespaces/inkscape"
   xmlns:sodipodi="http://sodipodi.sourceforge.net/DTD/sodipodi-0.dtd"
   xmlns="http://www.w3.org/2000/svg"
   xmlns:svg="http://www.w3.org/2000/svg">
  <defs
     id="defs2" />
  <sodipodi:namedview
     id="namedview2"
     pagecolor="#505050"
     bordercolor="#eeeeee"
     borderopacity="1"
     inkscape:showpageshadow="0"
     inkscape:pageopacity="0"
     inkscape:pagecheckerboard="0"
     inkscape:deskcolor="#505050"
     showguides="false"
     inkscape:zoom="0.67777612"
     inkscape:cx="230.1645"
     inkscape:cy="320.90242"
     inkscape:window-width="1920"
     inkscape:window-height="1057"
     inkscape:window-x="-8"
     inkscape:window-y="936"
     inkscape:window-maximized="1"
     inkscape:current-layer="layer1" />
  <g
     inkscape:groupmode="layer"
     id="layer1"
     inkscape:label="Layer 1"
     style="display:inline"
     sodipodi:insensitive="true">
    <path
       style="clip-rule:evenodd;display:inline;fill:#882dfd;fill-opacity:1;fill-rule:evenodd;image-rendering:optimizeQuality;shape-rendering:geometricPrecision;text-rendering:geometricPrecision"
       d="M 22.15,206 C 22.07,154.28 22.17,102.55 22.43,50.83 25.29,29.05 42.47,18.48 63.54,20.17 165.86,20.13 268.18,20.12 370.5,20.13 c 9.72,0.44 21.04,-0.99 30.43,1.57 14.49,5.29 22.38,15.61 23.69,30.98 0.21,109.25 0.25,218.51 0.12,327.76 1.21,22.59 -9.86,39.97 -33.41,42.24 -108.93,0.2 -217.85,0.25 -326.78,0.12 C 41.92,424.05 25.81,413.42 22.46,390.25 22.17,328.84 22.06,267.42 22.15,206 Z"
       id="path29" />
    <path
       style="clip-rule:evenodd;display:inline;fill:#ffffff;fill-opacity:1;fill-rule:evenodd;image-rendering:optimizeQuality;shape-rendering:geometricPrecision;text-rendering:geometricPrecision"
       d="m 45.02,88 c -0.03,98.14 0.02,196.27 0.13,294.41 -0.58,16.06 10,15.07 22.36,14.93 102.99,0.02 205.99,0.03 308.98,0 9.23,-0.66 22.31,3.03 25.06,-9.17 0.25,-4.22 0.36,-8.45 0.35,-12.69 0.01,-96.32 0.01,-192.64 0.01,-288.96 0.06,-0.56 -0.14,-1.01 -0.58,-1.35 C 283.05,84.87 164.77,84.8 46.48,84.96 44.66,84.83 45.09,86.84 45.02,88 Z"
       id="path28" />
    <path
       style="shape-rendering:geometricPrecision;text-rendering:geometricPrecision;image-rendering:optimizeQuality;fill-rule:evenodd;clip-rule:evenodd;display:inline;fill:none;fill-opacity:1;stroke:#882dfd;stroke-width:33.6585;stroke-linejoin:miter;stroke-miterlimit:17.3;stroke-dasharray:none;stroke-dashoffset:4.53545;stroke-opacity:1;paint-order:normal"
       id="path31"
       sodipodi:type="arc"
       sodipodi:cx="217.46249"
       sodipodi:cy="235.77428"
       sodipodi:rx="88.125847"
       sodipodi:ry="90.469818"
       sodipodi:start="1.5707963"
       sodipodi:end="0"
       sodipodi:arc-type="arc"
       d="m 217.46249,326.24409 a 88.125847,90.469818 0 0 1 -81.41766,-55.84851 88.125847,90.469818 0 0 1 19.10328,-98.59312 88.125847,90.469818 0 0 1 96.03868,-19.6114 88.125847,90.469818 0 0 1 54.40155,83.58322"
       sodipodi:open="true" />
    <path
       id="path11"
       style="shape-rendering:geometricPrecision;text-rendering:geometricPrecision;image-rendering:optimizeQuality;fill-rule:evenodd;clip-rule:evenodd;display:inline;fill:#882dfd;fill-opacity:1;stroke:none;stroke-width:4.91505;stroke-linejoin:round;stroke-miterlimit:17.3;stroke-dashoffset:4.53545"
       d="m 205.07974,254.57628 -0.31638,128.34056 66.96737,-51.84812 0.44474,51.67204 73.83367,-66.70023 -74.41716,-62.44183 -0.0435,52.1812 z"
       sodipodi:nodetypes="cccccccc" />
  </g>
</svg>
